<?xml version="1.0" encoding="UTF-8" standalone="no"?>
<svg
   class="icon icon-tabler icon-tabler-luggage"
   width="24"
   height="24"
   viewBox="0 0 24 24"
   stroke-width="2"
   stroke="currentColor"
   fill="none"
   stroke-linecap="round"
   stroke-linejoin="round"
   version="1.1"
   id="svg16"
   sodipodi:docname="luggage.svg"
   inkscape:version="1.1.1 (3bf5ae0d25, 2021-09-20)"
   inkscape:export-filename="D:\Projects\Code\travel-budget-app\public\logo.png"
   inkscape:export-xdpi="2048"
   inkscape:export-ydpi="2048"
   xmlns:inkscape="http://www.inkscape.org/namespaces/inkscape"
   xmlns:sodipodi="http://sodipodi.sourceforge.net/DTD/sodipodi-0.dtd"
   xmlns="http://www.w3.org/2000/svg"
   xmlns:svg="http://www.w3.org/2000/svg">
  <defs
     id="defs20" />
  <sodipodi:namedview
     id="namedview18"
     pagecolor="#505050"
     bordercolor="#eeeeee"
     borderopacity="1"
     inkscape:pageshadow="0"
     inkscape:pageopacity="0"
     inkscape:pagecheckerboard="0"
     showgrid="false"
     inkscape:zoom="22.627417"
     inkscape:cx="7.9328542"
     inkscape:cy="8.905126"
     inkscape:window-width="1920"
     inkscape:window-height="1009"
     inkscape:window-x="-8"
     inkscape:window-y="-8"
     inkscape:window-maximized="1"
     inkscape:current-layer="svg16" />
  <path
     stroke="none"
     d="M0 0h24v24H0z"
     fill="none"
     id="path2" />
  <g
     id="g6591"
     transform="matrix(1.0003134,0,0,1.0005022,-0.0037608,-0.00833089)"
     style="stroke-width:1.99919">
    <path
       id="path14"
       d="m 15,20 v 1 M 9,20 v 1 M 9,6 V 5 a 2,2 0 0 1 2,-2 h 2 a 2,2 0 0 1 2,2 V 6 M 8,6 h 8 c 1.108,0 2,0.892 2,2 v 10 c 0,1.108 -0.892,2 -2,2 H 8 C 6.892,20 6,19.108 6,18 V 8 C 6,6.892 6.892,6 8,6 Z"
       style="stroke:#303036;stroke-width:1.99919;stroke-opacity:1" />
    <path
       id="path30"
       style="fill:none;stroke:#6db1bf;stroke-width:1.99919;stroke-linecap:round;stroke-linejoin:round;stroke-opacity:1"
       d="m 12,16 v 1 m 0,-7.9999999 v 0.9999998 m 2,0 H 11.5 A 1.5,1.5 0 0 0 11.5,13 h 1 a 1.5,1.5 0 0 1 0,3 H 10" />
  </g>
</svg>
